# xmcd
#
# Track frame offsets: 
#        150
#        30893
#        56050
#        77720
#        101593
#        119233
#        142690
#        161790
#        184833
#        205990
#
# Disc length: 3094 seconds
#
# Revision: 2
# Processed by: cddbd v1.5PL3 Copyright (c) Steve Scherf et al.
# Submitted via: ExactAudioCopy v0.90b4
#
DISCID=860c140a
DTITLE=Sinead O'Connor - I do not want what I haven't got
DYEAR=1990
DGENRE=Avantgarde
TTITLE0=Feel So Different
TTITLE1=I Am Stretched To Your Grave
TTITLE2=Three Babies
TTITLE3=The Emperor's New Clothes
TTITLE4=Black Boys On Mopeds
TTITLE5=Nothing Compares 2 U
TTITLE6=Jump In The River
TTITLE7=You Cause As much Sorrow
TTITLE8=The Last Day Of Our Acqraintance
TTITLE9=I Do Not Want What I Haven't Got
EXTD=
EXTT0=
EXTT1=
EXTT2=
EXTT3=
EXTT4=
EXTT5=
EXTT6=
EXTT7=
EXTT8=
EXTT9=
PLAYORDER=
